<?xml version="1.0" encoding="UTF-8"?> <svg xmlns="http://www.w3.org/2000/svg" width="24" height="24" viewBox="0 0 24 24" fill="none"> <path d="M20.6633 18.771C20.6633 18.771 19.5047 19.909 19.2207 20.2426C18.7582 20.7362 18.2132 20.9693 17.4988 20.9693C17.4301 20.9693 17.3568 20.9693 17.2881 20.9647C15.9279 20.8779 14.6639 20.3477 13.7159 19.8953C11.1238 18.643 8.84771 16.8651 6.95629 14.6119C5.39461 12.7335 4.35044 10.9968 3.65891 9.13211C3.233 7.99409 3.07729 7.10744 3.14598 6.27107C3.19178 5.73634 3.39787 5.29302 3.77798 4.91368L5.33966 3.35519C5.56406 3.14496 5.80221 3.0307 6.03577 3.0307C6.32429 3.0307 6.55786 3.20437 6.70441 3.35062C6.70899 3.35519 6.71357 3.35977 6.71815 3.36434C6.99751 3.62485 7.26313 3.8945 7.54249 4.18243C7.68446 4.32868 7.83101 4.47493 7.97756 4.62575L9.22782 5.87345C9.71327 6.35791 9.71327 6.8058 9.22782 7.29026C9.09501 7.4228 8.96678 7.55534 8.83397 7.68331C8.44927 8.07636 8.75147 7.77477 8.35304 8.13126C8.34388 8.1404 8.33472 8.14497 8.33014 8.15411C7.93629 8.54716 8.00956 8.93107 8.092 9.19158C8.09658 9.20529 8.10116 9.219 8.10573 9.23271C8.43089 10.0188 8.88886 10.7592 9.58498 11.6413L9.58956 11.6459C10.8536 13.1998 12.1862 14.4109 13.6563 15.3387C13.8441 15.4575 14.0364 15.5535 14.2196 15.6449C14.3845 15.7272 14.5402 15.8049 14.673 15.8871C14.6913 15.8963 14.7097 15.91 14.728 15.9191C14.8837 15.9968 15.0302 16.0334 15.1814 16.0334C15.5615 16.0334 15.7996 15.7957 15.8775 15.718L16.7752 14.8222C16.9309 14.6668 17.1782 14.4794 17.4667 14.4794C17.7506 14.4794 17.9842 14.6576 18.1262 14.813C18.1308 14.8176 18.1308 14.8176 18.1353 14.8222L20.6587 17.3404C21.1305 17.8066 20.6633 18.771 20.6633 18.771Z" stroke="black" stroke-width="2" stroke-linecap="round" stroke-linejoin="round"></path> </svg> 