<?xml version="1.0" encoding="UTF-8"?> <svg xmlns="http://www.w3.org/2000/svg" width="32" height="32" viewBox="0 0 32 32" fill="none"> <path fill-rule="evenodd" clip-rule="evenodd" d="M22.5603 4.60488C21.3033 4.57744 19.8956 5.06446 18.5601 6.4L17.2801 5.12C18.9312 3.46888 20.8035 2.7559 22.5998 2.79512C24.3801 2.83399 26.0103 3.6102 27.2001 4.8C28.3899 5.98981 29.1661 7.61992 29.2049 9.40025C29.2441 11.1965 28.5312 13.0689 26.8801 14.72C26.5266 15.0735 25.9535 15.0735 25.6001 14.72C25.2466 14.3665 25.2466 13.7935 25.6001 13.44C26.9356 12.1045 27.4226 10.6968 27.3952 9.43976C27.3674 8.16676 26.8102 6.9702 25.9201 6.08C25.0299 5.1898 23.8333 4.63268 22.5603 4.60488Z" fill="white"></path> <path fill-rule="evenodd" clip-rule="evenodd" d="M26.88 13.44C27.2334 13.7934 27.2334 14.3665 26.88 14.72L22.4 19.2C22.0465 19.5534 21.4734 19.5534 21.12 19.2L12.8 10.88C12.4465 10.5265 12.4465 9.95343 12.8 9.59997L17.28 5.11997L18.56 6.39997L14.72 10.24L21.76 17.28L25.6 13.44C25.9534 13.0865 26.5265 13.0865 26.88 13.44Z" fill="white"></path> <path fill-rule="evenodd" clip-rule="evenodd" d="M9.43967 27.3951C10.6967 27.4226 12.1044 26.9355 13.4399 25.6L14.7199 26.88C13.0688 28.5311 11.1964 29.2441 9.40016 29.2049C7.61983 29.166 5.98972 28.3898 4.79992 27.2C3.61012 26.0102 2.83391 24.3801 2.79504 22.5998C2.75582 20.8035 3.4688 18.9311 5.11992 17.28C5.47338 16.9265 6.04646 16.9265 6.39992 17.28C6.75338 17.6335 6.75338 18.2065 6.39992 18.56C5.06438 19.8955 4.57736 21.3032 4.6048 22.5602C4.6326 23.8332 5.18972 25.0298 6.07992 25.92C6.97011 26.8102 8.16667 27.3673 9.43967 27.3951Z" fill="#26CA99"></path> <path fill-rule="evenodd" clip-rule="evenodd" d="M5.11997 18.56C4.7665 18.2065 4.7665 17.6334 5.11996 17.28L9.59996 12.8C9.95342 12.4465 10.5265 12.4465 10.88 12.8L19.2 21.12C19.5534 21.4734 19.5534 22.0465 19.2 22.4L14.72 26.88L13.44 25.6L17.28 21.76L10.24 14.72L6.39996 18.56C6.0465 18.9134 5.47343 18.9134 5.11997 18.56Z" fill="#26CA99"></path> </svg> 